<svg xmlns="http://www.w3.org/2000/svg" viewBox="0 0 64 64" role="img" aria-label="Voyage favicon">
  <defs>
    <linearGradient id="sunset" x1="0%" y1="0%" x2="100%" y2="100%">
      <stop offset="0%" stop-color="#ffb347" />
      <stop offset="100%" stop-color="#ff5f6d" />
    </linearGradient>
    <linearGradient id="sky" x1="0%" y1="0%" x2="0%" y2="100%">
      <stop offset="0%" stop-color="#0ea5e9" />
      <stop offset="100%" stop-color="#0369a1" />
    </linearGradient>
  </defs>
  <rect width="64" height="64" rx="14" fill="url(#sky)" />
  <circle cx="44" cy="20" r="10" fill="url(#sunset)" />
  <path fill="#f8fafc" d="M12 32c7 1.5 14.5 2.6 22.7 3.3l-9.6 8.1c-.8.7-.3 2 .7 1.9 3.8-.3 7.5-.9 11.3-1.8l5.3 5.5c.6.6 1.6.2 1.7-.7l1-8.3c4-.9 8-2 12-3.3.7-.2.7-1.1 0-1.3-4.2-1.4-8.3-2.6-12.5-3.5l-1.5-8.8c-.2-1-1.4-1.3-2-.5l-6.4 7.8c-4-.1-8.2-.4-12.4-.9L14 29.8c-1-.1-1.4 1.3-.5 1.8Z"/>
</svg>
